<svg width="16" height="16" viewBox="0 0 16 16" fill="none" xmlns="http://www.w3.org/2000/svg">
<path d="M4.86397 12.992C4.79997 12.992 4.73597 12.96 4.67197 12.928C4.54397 12.832 4.51197 12.704 4.54397 12.576L5.79197 8.736L2.52797 6.336C2.39997 6.24 2.36797 6.112 2.39997 5.984C2.43197 5.856 2.55997 5.76 2.71997 5.76H6.78397L7.99997 1.888C8.03197 1.76 8.15997 1.664 8.31997 1.664C8.47997 1.664 8.57597 1.76 8.63997 1.888L9.88797 5.76H13.952C14.08 5.76 14.208 5.824 14.272 5.952C14.336 6.08 14.272 6.24 14.144 6.304L10.88 8.672L12.128 12.512C12.16 12.64 12.128 12.8 12 12.864C11.872 12.928 11.744 12.96 11.616 12.864L8.31997 10.56L5.05597 12.928C4.99197 12.96 4.92797 12.992 4.86397 12.992ZM8.31997 9.824C8.38397 9.824 8.44797 9.856 8.51197 9.888L11.168 11.84L10.144 8.704C10.112 8.576 10.144 8.416 10.272 8.352L12.928 6.4H9.63197C9.50397 6.4 9.37597 6.304 9.31197 6.176L8.31997 3.04L7.29597 6.176C7.26397 6.304 7.13597 6.4 6.97597 6.4H3.67997L6.33597 8.352C6.46397 8.448 6.49597 8.576 6.46397 8.704L5.47197 11.84L8.12797 9.888C8.19197 9.856 8.25597 9.824 8.31997 9.824Z" fill="#1A89DB"/>
</svg>
