<svg width="22" height="22" viewBox="0 0 22 22" fill="none" xmlns="http://www.w3.org/2000/svg">
<path d="M2.75 4.8125C2.75 4.63016 2.82243 4.4553 2.95136 4.32636C3.0803 4.19743 3.25516 4.125 3.4375 4.125H18.5625C18.7448 4.125 18.9197 4.19743 19.0486 4.32636C19.1776 4.4553 19.25 4.63016 19.25 4.8125C19.25 4.99484 19.1776 5.1697 19.0486 5.29864C18.9197 5.42757 18.7448 5.5 18.5625 5.5H3.4375C3.25516 5.5 3.0803 5.42757 2.95136 5.29864C2.82243 5.1697 2.75 4.99484 2.75 4.8125ZM2.75 10.3125C2.75 10.1302 2.82243 9.9553 2.95136 9.82636C3.0803 9.69743 3.25516 9.625 3.4375 9.625H18.5625C18.7448 9.625 18.9197 9.69743 19.0486 9.82636C19.1776 9.9553 19.25 10.1302 19.25 10.3125C19.25 10.4948 19.1776 10.6697 19.0486 10.7986C18.9197 10.9276 18.7448 11 18.5625 11H3.4375C3.25516 11 3.0803 10.9276 2.95136 10.7986C2.82243 10.6697 2.75 10.4948 2.75 10.3125ZM2.75 15.8125C2.75 15.6302 2.82243 15.4553 2.95136 15.3264C3.0803 15.1974 3.25516 15.125 3.4375 15.125H18.5625C18.7448 15.125 18.9197 15.1974 19.0486 15.3264C19.1776 15.4553 19.25 15.6302 19.25 15.8125C19.25 15.9948 19.1776 16.1697 19.0486 16.2986C18.9197 16.4276 18.7448 16.5 18.5625 16.5H3.4375C3.25516 16.5 3.0803 16.4276 2.95136 16.2986C2.82243 16.1697 2.75 15.9948 2.75 15.8125Z" fill="black"/>
</svg>
