<svg width="37" height="36" viewBox="0 0 37 36" fill="none" xmlns="http://www.w3.org/2000/svg">
<path d="M15.4166 6C13.7811 6 12.2126 6.63214 11.0561 7.75736C9.89962 8.88258 9.24992 10.4087 9.24992 12C9.24992 13.5913 9.89962 15.1174 11.0561 16.2426C12.2126 17.3679 13.7811 18 15.4166 18C17.0521 18 18.6206 17.3679 19.7771 16.2426C20.9336 15.1174 21.5833 13.5913 21.5833 12C21.5833 10.4087 20.9336 8.88258 19.7771 7.75736C18.6206 6.63214 17.0521 6 15.4166 6ZM6.16659 12C6.16659 9.61305 7.14114 7.32387 8.87585 5.63604C10.6106 3.94821 12.9633 3 15.4166 3C17.8698 3 20.2226 3.94821 21.9573 5.63604C23.692 7.32387 24.6666 9.61305 24.6666 12C24.6666 14.3869 23.692 16.6761 21.9573 18.364C20.2226 20.0518 17.8698 21 15.4166 21C12.9633 21 10.6106 20.0518 8.87585 18.364C7.14114 16.6761 6.16659 14.3869 6.16659 12ZM29.2916 16.5C29.7005 16.5 30.0926 16.658 30.3817 16.9393C30.6708 17.2206 30.8333 17.6022 30.8333 18V19.5H32.3749C32.7838 19.5 33.1759 19.658 33.465 19.9393C33.7542 20.2206 33.9166 20.6022 33.9166 21C33.9166 21.3978 33.7542 21.7794 33.465 22.0607C33.1759 22.342 32.7838 22.5 32.3749 22.5H30.8333V24C30.8333 24.3978 30.6708 24.7794 30.3817 25.0607C30.0926 25.342 29.7005 25.5 29.2916 25.5C28.8827 25.5 28.4906 25.342 28.2015 25.0607C27.9123 24.7794 27.7499 24.3978 27.7499 24V22.5H26.2083C25.7994 22.5 25.4072 22.342 25.1181 22.0607C24.829 21.7794 24.6666 21.3978 24.6666 21C24.6666 20.6022 24.829 20.2206 25.1181 19.9393C25.4072 19.658 25.7994 19.5 26.2083 19.5H27.7499V18C27.7499 17.6022 27.9123 17.2206 28.2015 16.9393C28.4906 16.658 28.8827 16.5 29.2916 16.5ZM10.0208 27C8.07825 27 6.16659 28.8195 6.16659 31.5C6.16659 31.8978 6.00416 32.2794 5.71504 32.5607C5.42592 32.842 5.03379 33 4.62492 33C4.21604 33 3.82391 32.842 3.5348 32.5607C3.24568 32.2794 3.08325 31.8978 3.08325 31.5C3.08325 27.552 6.00163 24 10.0208 24H20.8124C24.8315 24 27.7499 27.552 27.7499 31.5C27.7499 31.8978 27.5875 32.2794 27.2984 32.5607C27.0093 32.842 26.6171 33 26.2083 33C25.7994 33 25.4072 32.842 25.1181 32.5607C24.829 32.2794 24.6666 31.8978 24.6666 31.5C24.6666 28.8195 22.7549 27 20.8124 27H10.0208Z" fill="#1A89DB"/>
</svg>
