<svg width="23" height="27" viewBox="0 0 23 27" fill="none" xmlns="http://www.w3.org/2000/svg">
<path d="M22.0089 26.9267L13.2177 16.9108C12.5157 17.5922 11.7085 18.1195 10.7959 18.4927C9.88342 18.8659 8.96621 19.0525 8.04432 19.0525C5.79621 19.0525 3.89347 18.1658 2.33608 16.3926C0.778693 14.6182 0 12.4509 0 9.89072C0 7.3305 0.777757 5.16215 2.33327 3.38567C3.88972 1.60813 5.79153 0.71936 8.0387 0.71936C10.2868 0.71936 12.1905 1.60653 13.7497 3.38088C15.309 5.15522 16.0886 7.32357 16.0886 9.88592C16.0886 10.997 15.9159 12.0724 15.5706 13.112C15.2243 14.1517 14.7704 15.041 14.2088 15.78L23 25.7942L22.0089 26.9267ZM8.04432 17.4514C9.90681 17.4514 11.4796 16.721 12.7628 15.2601C14.045 13.7993 14.6861 12.0073 14.6861 9.88432C14.6861 7.76236 14.045 5.97095 12.7628 4.5101C11.4806 3.04925 9.90822 2.31883 8.04572 2.31883C6.18322 2.31883 4.61039 3.04925 3.32723 4.5101C2.04501 5.97095 1.40389 7.76236 1.40389 9.88432C1.40389 12.0063 2.04501 13.7977 3.32723 15.2585C4.60945 16.7194 6.18182 17.4514 8.04432 17.4514Z" fill="#1A89DB"/>
</svg>
