<svg width="31" height="32" viewBox="0 0 31 32" fill="none" xmlns="http://www.w3.org/2000/svg">
<path fill-rule="evenodd" clip-rule="evenodd" d="M18.1047 0.844061C18.3538 0.520647 18.6915 0.338989 19.0436 0.338989C19.3957 0.338989 19.7334 0.520647 19.9825 0.844061L30.6114 14.6602C30.8602 14.984 31 15.423 31 15.8806C31 16.3383 30.8602 16.7772 30.6114 17.101L19.9825 30.9172C19.8608 31.0869 19.7142 31.2229 19.5512 31.3173C19.3882 31.4117 19.2123 31.4625 19.0339 31.4666C18.8555 31.4707 18.6783 31.428 18.5128 31.3412C18.3474 31.2543 18.1971 31.125 18.071 30.961C17.9448 30.797 17.8453 30.6017 17.7785 30.3866C17.7117 30.1716 17.6789 29.9413 17.682 29.7094C17.6852 29.4775 17.7242 29.2488 17.7968 29.0369C17.8694 28.8251 17.9741 28.6344 18.1047 28.4763L26.4661 17.6076H1.32862C0.976249 17.6076 0.638309 17.4257 0.389144 17.1018C0.139979 16.7779 0 16.3387 0 15.8806C0 15.4226 0.139979 14.9833 0.389144 14.6594C0.638309 14.3356 0.976249 14.1536 1.32862 14.1536H26.4661L18.1047 3.28491C17.8559 2.9611 17.7161 2.52215 17.7161 2.06449C17.7161 1.60683 17.8559 1.16788 18.1047 0.844061Z" fill="black"/>
</svg>
